<svg width="136" height="136" viewBox="0 0 136 136" fill="none" xmlns="http://www.w3.org/2000/svg">
<path d="M73.6673 27.2C51.0007 27.2 51.0007 108.8 73.6673 108.8C96.334 108.8 124.667 93.5 124.667 68C124.667 42.5 96.334 27.2 73.6673 27.2ZM74.234 97.4666C71.9673 95.2 68.0007 85 68.0007 68C68.0007 51 71.9673 40.8 74.234 38.5333C90.6673 39.1 113.334 49.3 113.334 68C113.334 86.7 90.6673 96.9 74.234 97.4666ZM11.334 28.3333H53.834C52.7007 30.6 51.0007 32.8666 50.434 36.2666C49.8673 37.4 49.8673 38.5333 49.3007 39.6666H11.334V28.3333ZM45.334 62.3333H11.334V51H46.4673C45.9007 54.4 45.9007 58.3666 45.334 62.3333ZM49.3007 96.3333C50.434 100.867 52.134 104.267 54.4007 107.667H11.9007V96.3333H49.3007ZM46.4673 85H11.334V73.6666H45.334C45.9007 77.6333 45.9007 81.6 46.4673 85Z" fill="#2BD150"/>
</svg>
