<svg width="136" height="136" viewBox="0 0 136 136" fill="none" xmlns="http://www.w3.org/2000/svg">
<path d="M73.6676 27.2C51.0009 27.2 51.0009 108.8 73.6676 108.8C96.3342 108.8 124.668 93.5 124.668 68C124.668 42.5 96.3342 27.2 73.6676 27.2ZM74.2342 97.4666C71.9676 95.2 68.0009 85 68.0009 68C68.0009 51 71.9676 40.8 74.2342 38.5333C90.6676 39.1 113.334 49.3 113.334 68C113.334 86.7 90.1009 96.9 74.2342 97.4666ZM45.3342 59.5C45.3342 62.3333 44.7676 65.1666 44.7676 68V71.4L13.6009 79.3333L10.7676 68.5666L45.3342 59.5ZM11.3342 39.6666L53.2676 28.8999C52.1342 30.5999 51.0009 32.8666 50.4342 35.7C49.8676 37.4 49.3009 39.6666 48.7342 41.9333L14.1676 50.4333L11.3342 39.6666ZM46.4676 87.8333C47.0342 91.8 48.1676 95.7666 49.3009 98.6L13.6009 107.667L10.7676 96.9L46.4676 87.8333Z" fill="#309501"/>
</svg>
