<svg width="136" height="136" viewBox="0 0 136 136" fill="none" xmlns="http://www.w3.org/2000/svg">
<g clip-path="url(#clip0_21_838)">
<path d="M129.625 59.5C127.934 59.5 126.313 60.1716 125.117 61.3672C123.922 62.5627 123.25 64.1842 123.25 65.875V74.375H114.75V70.125C114.75 67.3071 113.631 64.6046 111.638 62.612C109.645 60.6194 106.943 59.5 104.125 59.5H98.2812L80.1284 41.3631C79.1445 40.3731 77.9739 39.5882 76.6845 39.0538C75.395 38.5194 74.0124 38.2462 72.6166 38.25H65.875V29.75H74.375C76.0658 29.75 77.6873 29.0784 78.8828 27.8828C80.0783 26.6873 80.75 25.0658 80.75 23.375C80.75 21.6842 80.0783 20.0627 78.8828 18.8672C77.6873 17.6716 76.0658 17 74.375 17H44.625C42.9342 17 41.3127 17.6716 40.1172 18.8672C38.9216 20.0627 38.25 21.6842 38.25 23.375C38.25 25.0658 38.9216 26.6873 40.1172 27.8828C41.3127 29.0784 42.9342 29.75 44.625 29.75H53.125V38.25H31.875C29.0571 38.25 26.3546 39.3694 24.362 41.362C22.3694 43.3546 21.25 46.0571 21.25 48.875V74.375H12.75V65.875C12.75 64.1842 12.0784 62.5627 10.8828 61.3672C9.68726 60.1716 8.06575 59.5 6.375 59.5C4.68425 59.5 3.06274 60.1716 1.86719 61.3672C0.67165 62.5627 0 64.1842 0 65.875L0 95.625C0 97.3158 0.67165 98.9373 1.86719 100.133C3.06274 101.328 4.68425 102 6.375 102C8.06575 102 9.68726 101.328 10.8828 100.133C12.0784 98.9373 12.75 97.3158 12.75 95.625V87.125H21.25V93.8666C21.2462 95.2624 21.5194 96.645 22.0538 97.9345C22.5882 99.2239 23.3731 100.395 24.3631 101.378L43.1216 120.137C44.1055 121.127 45.2761 121.912 46.5655 122.446C47.855 122.981 49.2376 123.254 50.6334 123.25H72.6166C74.0124 123.254 75.395 122.981 76.6845 122.446C77.9739 121.912 79.1445 121.127 80.1284 120.137L98.2812 102H104.125C105.52 102 106.902 101.725 108.191 101.191C109.48 100.657 110.651 99.8746 111.638 98.888C112.625 97.9014 113.407 96.7301 113.941 95.441C114.475 94.1519 114.75 92.7703 114.75 91.375V87.125H123.25V95.625C123.25 97.3158 123.922 98.9373 125.117 100.133C126.313 101.328 127.934 102 129.625 102C131.316 102 132.937 101.328 134.133 100.133C135.328 98.9373 136 97.3158 136 95.625V65.875C136 64.1842 135.328 62.5627 134.133 61.3672C132.937 60.1716 131.316 59.5 129.625 59.5ZM102 89.25H97.3834C95.9876 89.2462 94.605 89.5194 93.3155 90.0538C92.0261 90.5882 90.8555 91.3731 89.8716 92.3631L71.7188 110.5H51.5312L34 92.9688V51H71.7188L89.8556 69.1369C90.8414 70.1288 92.0146 70.9148 93.307 71.4493C94.5993 71.9837 95.985 72.2559 97.3834 72.25H102V89.25Z" fill="#C60000"/>
</g>
<defs>
<clipPath id="clip0_21_838">
<rect width="136" height="136" fill="white"/>
</clipPath>
</defs>
</svg>
