<svg width="136" height="136" viewBox="0 0 136 136" fill="none" xmlns="http://www.w3.org/2000/svg">
<path d="M68 17C39.6667 17 17 39.6667 17 68C17 96.3333 39.6667 119 68 119C96.3333 119 119 96.3333 119 68C119 39.6667 96.3333 17 68 17ZM68 107.667C45.9 107.667 28.3333 90.1 28.3333 68C28.3333 45.9 45.9 28.3333 68 28.3333C90.1 28.3333 107.667 45.9 107.667 68C107.667 90.1 90.1 107.667 68 107.667ZM116.167 116.167C128.633 103.7 136 86.7 136 68C136 49.3 128.633 32.3 116.167 19.8333L109.933 26.0667C120.7 36.8333 127.5 51.5667 127.5 68C127.5 84.4333 120.7 99.1667 109.933 109.933L116.167 116.167ZM26.0667 109.933C15.3 99.1667 8.5 84.4333 8.5 68C8.5 51.5667 15.3 36.8333 26.0667 26.0667L19.8333 19.8333C7.36667 32.3 0 49.3 0 68C0 86.7 7.36667 103.7 19.8333 116.167L26.0667 109.933ZM53.8333 39.6667V96.3333H65.1667V73.6667H76.5C79.5058 73.6667 82.3885 72.4726 84.5139 70.3472C86.6393 68.2218 87.8333 65.3391 87.8333 62.3333V51C87.8333 47.9942 86.6393 45.1115 84.5139 42.9861C82.3885 40.8607 79.5058 39.6667 76.5 39.6667H53.8333ZM65.1667 51H76.5V62.3333H65.1667V51Z" fill="#FFC226"/>
</svg>
