<svg width="136" height="136" viewBox="0 0 136 136" fill="none" xmlns="http://www.w3.org/2000/svg">
<path d="M73.6673 27.2C51.0007 27.2 51.0007 108.8 73.6673 108.8C96.334 108.8 124.667 93.5 124.667 68C124.667 42.5 96.334 27.2 73.6673 27.2ZM74.234 97.4667C71.9673 95.2 68.0007 85 68.0007 68C68.0007 51 71.9673 40.8 74.234 38.5333C90.6673 39.1 113.334 49.3 113.334 68C113.334 86.7 90.6673 96.9 74.234 97.4667ZM34.0007 45.3333V62.3333H45.334V73.6667H34.0007V90.6667H47.6007C48.734 94.6333 49.8673 98.6 51.0007 102H34.0007V119H22.6673V102H11.334V90.6667H22.6673V73.6667H11.334V62.3333H22.6673V45.3333H11.334V34H22.6673V17H34.0007V34H51.0007C51.0007 34.5667 50.434 35.1333 50.434 36.2667C49.3007 39.1 48.1673 41.9333 47.6007 45.3333H34.0007Z" fill="#FFC226"/>
</svg>
