<svg width="128" height="128" viewBox="0 0 128 128" fill="none" xmlns="http://www.w3.org/2000/svg">
<path d="M63.9996 10.6667C66.8286 10.6667 69.5417 11.7905 71.5421 13.7909C73.5425 15.7913 74.6663 18.5044 74.6663 21.3334C74.6663 27.2534 69.9196 32 63.9996 32C61.1707 32 58.4576 30.8762 56.4572 28.8758C54.4568 26.8754 53.333 24.1623 53.333 21.3334C53.333 18.5044 54.4568 15.7913 56.4572 13.7909C58.4576 11.7905 61.1707 10.6667 63.9996 10.6667ZM66.0796 78.88C73.6556 78.8505 81.226 79.2958 88.7463 80.2133C89.0663 65.7067 87.7863 52.9067 85.333 48C84.6396 46.56 83.6796 45.3334 82.6663 44.2667L39.6263 81.1733C46.8796 80 55.9996 78.88 66.0796 78.88ZM39.7863 90.6667C40.4796 99.9467 41.8663 109.333 44.1063 117.333H55.1463C53.5996 112.64 52.4796 107.147 51.6263 101.333C51.6263 101.333 63.9996 98.9867 76.373 101.333C75.5196 107.147 74.3996 112.64 72.853 117.333H83.893C86.2396 109.067 87.6263 99.2534 88.3196 89.5467C80.9399 88.6544 73.5131 88.2092 66.0796 88.2134C55.7863 88.2134 46.8263 89.3334 39.7863 90.6667ZM63.9996 37.3334C63.9996 37.3334 47.9996 37.3334 42.6663 48C40.853 51.6267 39.6796 59.4667 39.3063 69.12L74.2396 39.1467C68.9596 37.3334 63.9996 37.3334 63.9996 37.3334ZM99.0396 30.24L92.9596 23.1467L74.2396 39.2C77.173 40.2134 80.2663 41.8134 82.6663 44.2667L99.0396 30.24ZM110.24 84.4267C109.76 84.2667 102.08 81.76 88.7463 80.2133C88.693 83.2533 88.533 86.4 88.3196 89.5467C100.32 91.04 107.2 93.3334 107.306 93.3334L110.24 84.4267ZM39.3063 69.12L18.293 87.1467L23.0396 95.04C23.1463 94.9867 29.333 92.5867 39.7863 90.6667C39.1996 83.1467 39.0396 75.7334 39.3063 69.12Z" fill="#C60000"/>
</svg>
