<svg width="112" height="130" viewBox="0 0 112 130" fill="none" xmlns="http://www.w3.org/2000/svg">
<g opacity="0.3" filter="url(#filter0_f_11_119)">
<path d="M54.25 37.5H68.25C69.23 37.5 70 38.27 70 39.25C70 40.23 69.23 41 68.25 41H54.25C53.27 41 52.5 40.23 52.5 39.25C52.5 38.27 53.27 37.5 54.25 37.5Z" fill="white"/>
<path d="M21 118H84V114.465C84 112.54 82.46 111 80.535 111H80.5V72.5C80.6575 72.4195 81.4275 72.4615 81.907 72.486L82.25 72.5C83.23 72.5 84 73.27 84 74.25V98.75C84 101.655 86.345 104 89.25 104C92.155 104 94.5 101.655 94.5 98.75V47.86C94.5015 47.6188 94.4489 47.3804 94.3459 47.1623C94.2429 46.9442 94.0922 46.752 93.905 46.6L82.88 37.815C81.9 37.045 80.5 37.78 80.5 39.075V26.965C80.5 23.115 77.385 20 73.535 20H31.465C27.615 20 24.5 23.115 24.5 26.965V62H80.5V39.075C80.5 39.32 80.535 39.53 80.64 39.74L83.86 46.775C83.965 46.985 84 47.23 84 47.44V58.29C84 60.355 85.54 61.965 87.465 61.965H91V98.75C91 99.73 90.23 100.5 89.25 100.5C88.27 100.5 87.5 99.73 87.5 98.75V74.25C87.5021 73.5404 87.3602 72.8378 87.0828 72.1847C86.8054 71.5315 86.3983 70.9415 85.8862 70.4503C85.3741 69.9592 84.7676 69.577 84.1035 69.3271C83.4393 69.0772 82.7314 68.9648 82.0225 68.9965C81.5675 68.9895 80.612 68.972 80.5 69V65.5H24.5V111C22.575 111 21 112.575 21 114.5V118ZM35.105 55C33.11 55 31.5 53.39 31.5 51.395V34H73.5V51.395C73.5 53.39 71.89 55 69.895 55H35.105ZM87.535 56.4V50.905C87.535 49.505 89.145 48.805 90.055 49.785L90.58 50.345C90.86 50.625 91 51.045 91 51.465V56.7325C90.9962 56.3 90.8323 55.8842 90.5401 55.5654C90.2478 55.2465 89.8478 55.0472 89.4172 55.0059C88.9867 54.9646 88.5561 55.0842 88.2085 55.3416C87.8609 55.5991 87.621 55.9761 87.535 56.4Z" fill="white"/>
</g>
<path d="M54.25 24.5H68.25C69.23 24.5 70 25.27 70 26.25C70 27.23 69.23 28 68.25 28H54.25C53.27 28 52.5 27.23 52.5 26.25C52.5 25.27 53.27 24.5 54.25 24.5Z" fill="white"/>
<path d="M21 105H84V101.465C84 99.54 82.46 98 80.535 98H80.5V59.5C80.6575 59.4195 81.4275 59.4615 81.907 59.486L82.25 59.5C83.23 59.5 84 60.27 84 61.25V85.75C84 88.655 86.345 91 89.25 91C92.155 91 94.5 88.655 94.5 85.75V34.86C94.5015 34.6188 94.4489 34.3804 94.3459 34.1623C94.2429 33.9442 94.0922 33.752 93.905 33.6L82.88 24.815C81.9 24.045 80.5 24.78 80.5 26.075V13.965C80.5 10.115 77.385 7 73.535 7H31.465C27.615 7 24.5 10.115 24.5 13.965V49H80.5V26.075C80.5 26.32 80.535 26.53 80.64 26.74L83.86 33.775C83.965 33.985 84 34.23 84 34.44V45.29C84 47.355 85.54 48.965 87.465 48.965H91V85.75C91 86.73 90.23 87.5 89.25 87.5C88.27 87.5 87.5 86.73 87.5 85.75V61.25C87.5021 60.5404 87.3602 59.8378 87.0828 59.1847C86.8054 58.5315 86.3983 57.9415 85.8862 57.4503C85.3741 56.9592 84.7676 56.577 84.1035 56.3271C83.4393 56.0772 82.7314 55.9648 82.0225 55.9965C81.5675 55.9895 80.612 55.972 80.5 56V52.5H24.5V98C22.575 98 21 99.575 21 101.5V105ZM35.105 42C33.11 42 31.5 40.39 31.5 38.395V21H73.5V38.395C73.5 40.39 71.89 42 69.895 42H35.105ZM87.535 43.4V37.905C87.535 36.505 89.145 35.805 90.055 36.785L90.58 37.345C90.86 37.625 91 38.045 91 38.465V43.7325C90.9962 43.3 90.8323 42.8842 90.5401 42.5654C90.2478 42.2465 89.8478 42.0472 89.4172 42.0059C88.9867 41.9646 88.5561 42.0842 88.2085 42.3416C87.8609 42.5991 87.621 42.9761 87.535 43.4Z" fill="white"/>
<defs>
<filter id="filter0_f_11_119" x="-12" y="1" width="136" height="136" filterUnits="userSpaceOnUse" color-interpolation-filters="sRGB">
<feFlood flood-opacity="0" result="BackgroundImageFix"/>
<feBlend mode="normal" in="SourceGraphic" in2="BackgroundImageFix" result="shape"/>
<feGaussianBlur stdDeviation="6" result="effect1_foregroundBlur_11_119"/>
</filter>
</defs>
</svg>
