<svg width="136" height="140" viewBox="0 0 136 140" fill="none" xmlns="http://www.w3.org/2000/svg">
<g opacity="0.3" clip-path="url(#clip0_14_228)" filter="url(#filter0_f_14_228)">
<path d="M65.6667 20.6666C63.8102 20.6666 62.0297 21.4041 60.7169 22.7169C59.4042 24.0296 58.6667 25.8101 58.6667 27.6666V83.6666C55.7267 85.86 54 89.3133 54 93C54 96.0942 55.2292 99.0616 57.4171 101.25C59.605 103.437 62.5725 104.667 65.6667 104.667C68.7609 104.667 71.7283 103.437 73.9162 101.25C76.1042 99.0616 77.3333 96.0942 77.3333 93C77.3333 89.3133 75.6067 86 72.6667 83.6666V76.6666H91.3333V67.3333H72.6667V58H91.3333V48.6666H72.6667V39.3333H91.3333V30H72.6667V27.6666C72.6667 25.8101 71.9292 24.0296 70.6164 22.7169C69.3037 21.4041 67.5232 20.6666 65.6667 20.6666ZM12 86V95.3333C15.1267 95.3333 15.6867 96.3133 18.02 98.6466C20.3533 100.98 24.46 104.667 30.6667 104.667C36.8733 104.667 40.98 100.98 43.3133 98.6466C43.8267 98.0866 44.2467 97.6666 44.6667 97.2466V86.7466C40.98 87.96 38.3667 90.34 36.6867 92.02C34.3533 94.3533 33.7933 95.3333 30.6667 95.3333C27.54 95.3333 26.98 94.3533 24.6467 92.02C22.3133 89.6866 18.2067 86 12 86ZM86.6667 86V95.3333C89.7933 95.3333 90.3533 96.3133 92.6867 98.6466C95.02 100.98 99.1267 104.667 105.333 104.667C111.54 104.667 115.647 100.98 117.98 98.6466C120.313 96.3133 120.873 95.3333 124 95.3333V86C117.793 86 113.687 89.6866 111.353 92.02C109.02 94.3533 108.46 95.3333 105.333 95.3333C102.207 95.3333 101.647 94.3533 99.3133 92.02C96.98 89.6866 92.8733 86 86.6667 86ZM49.3333 109.333C43.1267 109.333 39.02 113.02 36.6867 115.353C34.3533 117.687 33.7933 118.667 30.6667 118.667C27.54 118.667 26.98 117.687 24.6467 115.353C22.9667 113.673 20.3533 111.293 16.6667 110.08V120.58C17.0867 121 17.5067 121.42 18.02 121.98C20.3533 124.313 24.46 128 30.6667 128C36.8733 128 40.98 124.313 43.3133 121.98C45.6467 119.647 46.2067 118.667 49.3333 118.667C52.46 118.667 53.02 119.647 55.3533 121.98C57.4067 123.987 60.72 127.067 65.6667 127.813C66.4133 128 67.2067 128 68 128C74.2067 128 78.3133 124.313 80.6467 121.98C82.98 119.647 83.54 118.667 86.6667 118.667C89.7933 118.667 90.3533 119.647 92.6867 121.98C95.02 124.313 99.1267 128 105.333 128C111.54 128 115.647 124.313 117.98 121.98C118.493 121.42 118.913 121 119.333 120.58V110.08C115.647 111.293 113.033 113.673 111.353 115.353C109.02 117.687 108.46 118.667 105.333 118.667C102.207 118.667 101.647 117.687 99.3133 115.353C96.98 113.02 92.8733 109.333 86.6667 109.333C80.46 109.333 76.3533 113.02 74.02 115.353C71.6867 117.687 71.1267 118.667 68 118.667C66.9733 118.667 66.2733 118.527 65.6667 118.293C64.36 117.827 63.5667 116.94 61.98 115.353C59.6467 113.02 55.54 109.333 49.3333 109.333Z" fill="white"/>
</g>
<g clip-path="url(#clip1_14_228)">
<path d="M65.6667 10.6666C63.8102 10.6666 62.0297 11.4041 60.7169 12.7169C59.4042 14.0296 58.6667 15.8101 58.6667 17.6666V73.6666C55.7267 75.86 54 79.3133 54 83C54 86.0942 55.2292 89.0616 57.4171 91.2495C59.605 93.4375 62.5725 94.6666 65.6667 94.6666C68.7609 94.6666 71.7283 93.4375 73.9162 91.2495C76.1042 89.0616 77.3333 86.0942 77.3333 83C77.3333 79.3133 75.6067 76 72.6667 73.6666V66.6666H91.3333V57.3333H72.6667V48H91.3333V38.6666H72.6667V29.3333H91.3333V20H72.6667V17.6666C72.6667 15.8101 71.9292 14.0296 70.6164 12.7169C69.3037 11.4041 67.5232 10.6666 65.6667 10.6666ZM12 76V85.3333C15.1267 85.3333 15.6867 86.3133 18.02 88.6466C20.3533 90.98 24.46 94.6666 30.6667 94.6666C36.8733 94.6666 40.98 90.98 43.3133 88.6466C43.8267 88.0866 44.2467 87.6666 44.6667 87.2466V76.7466C40.98 77.96 38.3667 80.34 36.6867 82.02C34.3533 84.3533 33.7933 85.3333 30.6667 85.3333C27.54 85.3333 26.98 84.3533 24.6467 82.02C22.3133 79.6866 18.2067 76 12 76ZM86.6667 76V85.3333C89.7933 85.3333 90.3533 86.3133 92.6867 88.6466C95.02 90.98 99.1267 94.6666 105.333 94.6666C111.54 94.6666 115.647 90.98 117.98 88.6466C120.313 86.3133 120.873 85.3333 124 85.3333V76C117.793 76 113.687 79.6866 111.353 82.02C109.02 84.3533 108.46 85.3333 105.333 85.3333C102.207 85.3333 101.647 84.3533 99.3133 82.02C96.98 79.6866 92.8733 76 86.6667 76ZM49.3333 99.3333C43.1267 99.3333 39.02 103.02 36.6867 105.353C34.3533 107.687 33.7933 108.667 30.6667 108.667C27.54 108.667 26.98 107.687 24.6467 105.353C22.9667 103.673 20.3533 101.293 16.6667 100.08V110.58C17.0867 111 17.5067 111.42 18.02 111.98C20.3533 114.313 24.46 118 30.6667 118C36.8733 118 40.98 114.313 43.3133 111.98C45.6467 109.647 46.2067 108.667 49.3333 108.667C52.46 108.667 53.02 109.647 55.3533 111.98C57.4067 113.987 60.72 117.067 65.6667 117.813C66.4133 118 67.2067 118 68 118C74.2067 118 78.3133 114.313 80.6467 111.98C82.98 109.647 83.54 108.667 86.6667 108.667C89.7933 108.667 90.3533 109.647 92.6867 111.98C95.02 114.313 99.1267 118 105.333 118C111.54 118 115.647 114.313 117.98 111.98C118.493 111.42 118.913 111 119.333 110.58V100.08C115.647 101.293 113.033 103.673 111.353 105.353C109.02 107.687 108.46 108.667 105.333 108.667C102.207 108.667 101.647 107.687 99.3133 105.353C96.98 103.02 92.8733 99.3333 86.6667 99.3333C80.46 99.3333 76.3533 103.02 74.02 105.353C71.6867 107.687 71.1267 108.667 68 108.667C66.9733 108.667 66.2733 108.527 65.6667 108.293C64.36 107.827 63.5667 106.94 61.98 105.353C59.6467 103.02 55.54 99.3333 49.3333 99.3333Z" fill="white"/>
</g>
<defs>
<filter id="filter0_f_14_228" x="0" y="4" width="136" height="136" filterUnits="userSpaceOnUse" color-interpolation-filters="sRGB">
<feFlood flood-opacity="0" result="BackgroundImageFix"/>
<feBlend mode="normal" in="SourceGraphic" in2="BackgroundImageFix" result="shape"/>
<feGaussianBlur stdDeviation="6" result="effect1_foregroundBlur_14_228"/>
</filter>
<clipPath id="clip0_14_228">
<rect width="112" height="112" fill="white" transform="translate(12 16)"/>
</clipPath>
<clipPath id="clip1_14_228">
<rect width="112" height="112" fill="white" transform="translate(12 6)"/>
</clipPath>
</defs>
</svg>
