<svg width="168" height="118" viewBox="0 0 168 118" fill="none" xmlns="http://www.w3.org/2000/svg">
<path d="M153.999 65.5C153.999 65.5 167.999 80.69 167.999 90C167.999 93.713 166.524 97.274 163.899 99.8995C161.273 102.525 157.712 104 153.999 104C150.286 104 146.725 102.525 144.1 99.8995C141.474 97.274 139.999 93.713 139.999 90C139.999 80.69 153.999 65.5 153.999 65.5ZM41.9991 20H69.9991C71.8556 20 73.6361 20.7375 74.9488 22.0503C76.2616 23.363 76.9991 25.1435 76.9991 27C76.9991 28.8565 76.2616 30.637 74.9488 31.9497C73.6361 33.2625 71.8556 34 69.9991 34H62.9991V48H76.9991C82.1791 48 86.7291 50.8 89.1091 55L134.679 28.68L157.499 41.91C160.999 43.8 161.979 48 160.089 51.5C158.129 54.79 153.999 55.98 150.499 54.02L135.799 45.55L110.249 89.79C107.869 94.06 103.249 97 97.9991 97H34.9991C31.286 97 27.7251 95.525 25.0996 92.8995C22.4741 90.274 20.9991 86.713 20.9991 83V62C20.9991 58.287 22.4741 54.726 25.0996 52.1005C27.7251 49.475 31.286 48 34.9991 48H48.9991V34H41.9991C40.1426 34 38.3621 33.2625 37.0493 31.9497C35.7366 30.637 34.9991 28.8565 34.9991 27C34.9991 25.1435 35.7366 23.363 37.0493 22.0503C38.3621 20.7375 40.1426 20 41.9991 20ZM34.9991 62V83H97.9991L112.419 58.01L88.1991 72.01L81.8291 62H34.9991ZM2.65906 42.47L14.6291 30.5C17.4991 27.77 21.7691 27.77 24.4991 30.5C27.2291 33.23 27.2291 37.5 24.4991 40.37L12.5291 52.34C9.79906 55 5.38906 55 2.65906 52.34C-0.000937581 49.61 -0.000937581 45.2 2.65906 42.47Z" fill="#1A1F2D"/>
</svg>
