<svg width="128" height="128" viewBox="0 0 128 128" fill="none" xmlns="http://www.w3.org/2000/svg">
<g clip-path="url(#clip0_21_834)">
<path d="M58.6667 80H69.3333V90.6667H58.6667V80ZM58.6667 37.3333H69.3333V69.3333H58.6667V37.3333ZM64 16C51.2696 16 39.0606 21.0571 30.0589 30.0589C21.0571 39.0606 16 51.2696 16 64C16 76.7304 21.0571 88.9394 30.0589 97.9411C39.0606 106.943 51.2696 112 64 112C76.7304 112 88.9394 106.943 97.9411 97.9411C106.943 88.9394 112 76.7304 112 64C112 51.2696 106.943 39.0606 97.9411 30.0589C88.9394 21.0571 76.7304 16 64 16ZM64 101.333C43.4133 101.333 26.6667 84.5867 26.6667 64C26.6667 43.4133 43.4133 26.6667 64 26.6667C84.5867 26.6667 101.333 43.4133 101.333 64C101.333 84.5867 84.5867 101.333 64 101.333ZM109.333 109.333C120.853 97.6533 128 81.6533 128 64C128 46.3467 120.853 30.3467 109.333 18.6667L103.573 24.4267C113.707 34.6667 120 48.5867 120 64C120 79.4667 113.707 93.3333 103.573 103.573L109.333 109.333ZM24.4267 103.573C14.2933 93.3333 8 79.4667 8 64C8 48.5867 14.2933 34.6667 24.4267 24.4267L18.6667 18.6667C7.14667 30.3467 0 46.3467 0 64C0 81.6533 7.14667 97.6533 18.6667 109.333L24.4267 103.573Z" fill="#FFC226"/>
</g>
<defs>
<clipPath id="clip0_21_834">
<rect width="128" height="128" fill="white"/>
</clipPath>
</defs>
</svg>
