<svg width="144" height="144" viewBox="0 0 144 144" fill="none" xmlns="http://www.w3.org/2000/svg">
<path d="M66 78H78V90H66V78ZM66 30H78V66H66V30ZM102 28.56C113.16 37.14 120 51.66 120 66C119.992 74.582 117.684 83.0051 113.315 90.3919C108.946 97.7787 102.677 103.859 95.16 108H48.84C41.323 103.859 35.0537 97.7787 30.6849 90.3919C26.3161 83.0051 24.0077 74.582 24 66C24 51.66 30.54 37.02 42 28.56V12H30V23.16C18.9 34.08 12 49.2 12 66C12 82.8 18.9 97.92 30 108.84V132H42V120H54V132H66V120H78V132H90V120H102V132H114V108.84C125.1 97.92 132 82.8 132 66C132 49.2 125.1 34.08 114 23.16V12H102V28.56Z" fill="#FFC300"/>
</svg>
