<svg width="89" height="88" viewBox="0 0 89 88" fill="none" xmlns="http://www.w3.org/2000/svg">
<path d="M44.0124 23.8333C46.4435 23.8333 48.7751 24.799 50.4942 26.5181C52.2133 28.2372 53.179 30.5688 53.179 32.9999C53.179 34.2037 52.9419 35.3957 52.4813 36.5079C52.0206 37.62 51.3454 38.6305 50.4942 39.4817C49.643 40.3329 48.6325 41.0081 47.5203 41.4688C46.4082 41.9295 45.2162 42.1666 44.0124 42.1666C41.5812 42.1666 39.2496 41.2008 37.5306 39.4817C35.8115 37.7626 34.8457 35.4311 34.8457 32.9999C34.8457 30.5688 35.8115 28.2372 37.5306 26.5181C39.2496 24.799 41.5812 23.8333 44.0124 23.8333ZM44.0124 7.33325C50.8196 7.33325 57.348 10.0374 62.1614 14.8508C66.9749 19.6643 69.679 26.1927 69.679 32.9999C69.679 52.2499 44.0124 80.6666 44.0124 80.6666C44.0124 80.6666 18.3457 52.2499 18.3457 32.9999C18.3457 26.1927 21.0499 19.6643 25.8633 14.8508C30.6767 10.0374 37.2051 7.33325 44.0124 7.33325ZM44.0124 14.6666C39.1501 14.6666 34.4869 16.5981 31.0487 20.0363C27.6106 23.4745 25.679 28.1376 25.679 32.9999C25.679 36.6666 25.679 43.9999 44.0124 68.6032C62.3457 43.9999 62.3457 36.6666 62.3457 32.9999C62.3457 28.1376 60.4142 23.4745 56.976 20.0363C53.5378 16.5981 48.8747 14.6666 44.0124 14.6666Z" fill="white"/>
</svg>
