<svg width="89" height="88" viewBox="0 0 89 88" fill="none" xmlns="http://www.w3.org/2000/svg">
<path d="M44.0124 73.3333C60.1457 73.3333 73.3457 60.1333 73.3457 43.9999C73.3457 27.8666 60.1457 14.6666 44.0124 14.6666C27.879 14.6666 14.679 27.8666 14.679 43.9999C14.679 60.1333 27.879 73.3333 44.0124 73.3333ZM44.0124 7.33325C64.179 7.33325 80.679 23.8333 80.679 43.9999C80.679 64.1666 64.179 80.6666 44.0124 80.6666C23.8457 80.6666 7.3457 64.1666 7.3457 43.9999C7.3457 23.8333 23.8457 7.33325 44.0124 7.33325ZM62.3457 50.9666L59.779 55.7333L40.3457 45.0999V25.6666H45.8457V41.7999L62.3457 50.9666Z" fill="white"/>
</svg>
