<svg width="223" height="224" viewBox="0 0 223 224" fill="none" xmlns="http://www.w3.org/2000/svg">
<path fill-rule="evenodd" clip-rule="evenodd" d="M111.015 19.488C162.108 19.4815 203.531 60.8933 203.537 111.987C203.544 163.081 162.132 204.503 111.038 204.509C59.9444 204.516 18.5221 163.104 18.5156 112.01C18.5092 60.9168 59.921 19.4945 111.015 19.488ZM38.9164 128.752C42.1556 142.651 49.3391 155.318 59.6037 165.232C69.8684 175.146 82.7774 181.885 96.7797 184.64C94.9911 160.356 87.0056 145.787 76.9209 137.73C67.2618 130.007 54.1619 127.02 38.9164 128.743L38.9164 128.752ZM145.138 137.712C135.056 145.79 127.074 160.352 125.291 184.636C139.294 181.877 152.202 175.134 162.465 165.215C172.727 155.297 179.906 142.625 183.141 128.725C167.895 127.006 154.795 129.996 145.138 137.722L145.138 137.712ZM111.017 37.9902C93.7746 37.9947 77.0745 44.0171 63.7978 55.0185C50.5212 66.0199 41.5007 81.3103 38.2927 98.2516L37.8952 100.546L58.3395 96.4544C63.7235 95.3806 68.839 92.5398 74.5557 88.6814L78.9681 85.6095C86.3405 80.3725 97.2653 74.9962 111.022 74.9944C123.862 74.9928 134.233 79.6725 141.551 84.5562L147.491 88.6722C152.487 92.0482 157.039 94.6379 161.702 95.9602L163.709 96.441L184.155 100.527C181.416 83.098 172.543 67.2198 159.133 55.7539C145.724 44.2879 128.66 37.9883 111.017 37.9902Z" fill="white"/>
</svg>
