<svg width="208" height="232" viewBox="0 0 208 232" fill="none" xmlns="http://www.w3.org/2000/svg">
<g clip-path="url(#clip0_1_28)">
<rect x="4" y="0.0252686" width="199" height="231.015" rx="24" fill="white"/>
<path d="M37.4789 39.3272C50.3109 39.3272 52.9669 39.3272 52.9669 46.1752C52.9669 53.0232 50.1509 53.6312 37.4789 53.6312C24.8069 53.6312 22.0229 53.0552 22.0229 46.0792H28.9029V48.0312H46.0549V44.3192H37.4789C24.8069 44.3192 22.3109 44.3192 22.3109 37.4712C22.3109 30.6232 25.0629 30.0152 37.5109 30.0152C49.9269 30.0152 52.6469 30.7512 52.6469 37.5672H45.7989V35.6152H29.1589V39.3272H36.1349C36.5509 39.3272 36.9989 39.3272 37.4789 39.3272ZM75.8406 30.6232C84.5126 30.6232 85.6326 31.6472 85.6326 39.1352C85.6326 46.6552 84.7686 47.6792 75.8406 47.6792H63.0726V53.0232H56.2246V30.6232H61.8566H75.8406ZM75.8086 42.0792C78.7526 42.0792 78.8166 41.2472 78.8166 39.1352C78.8166 37.0552 78.7526 36.2232 75.8086 36.2232H63.0726V42.0792H75.8086ZM95.5414 44.3192V47.4232H117.685V52.9912L88.6934 53.0232V30.6232H117.685V36.2232H95.5414V39.3272H117.109V44.3192H95.5414ZM128.041 44.3192V47.4232H150.185V52.9912L121.193 53.0232V30.6232H150.185V36.2232H128.041V39.3272H149.609V44.3192H128.041ZM169.277 52.9912L153.693 53.0232V30.6232H169.277C184.189 30.6232 184.797 31.2312 184.797 41.8232C184.797 52.4152 184.221 52.9912 169.277 52.9912ZM160.541 47.4232H169.277C177.949 47.4232 177.949 47.4232 177.949 41.8552C177.949 36.2232 177.949 36.2232 169.245 36.2232H160.541V47.4232ZM51.4476 85.0312H70.4876V90.0232H44.5996V67.6232H51.4476V85.0312ZM72.7246 67.6232H79.5726V90.0232H72.7246V67.6232ZM118.068 67.6232H119.668V90.0232H112.82V76.2312L104.404 90.0232H98.6761L90.2601 76.2312V90.0232H83.4121V67.6232H85.0121H92.2121L101.556 82.8872L110.868 67.6232H118.068ZM123.537 67.6232H130.385V90.0232H123.537V67.6232ZM164.017 67.6232V72.6152H151.729V90.0232H144.881V72.6152H132.593V67.6232H164.017Z" fill="#090C14"/>
</g>
<rect x="2.49994" y="2.5" width="203" height="227" rx="21.5" stroke="white" stroke-width="5"/>
<defs>
<clipPath id="clip0_1_28">
<rect x="-6.10352e-05" width="208" height="232" rx="24" fill="white"/>
</clipPath>
</defs>
</svg>
