<svg width="207" height="238" viewBox="0 0 207 238" fill="none" xmlns="http://www.w3.org/2000/svg">
<rect x="2.49999" y="2.5" width="202" height="233" rx="21.5" stroke="white" stroke-width="5"/>
<rect x="8.99999" y="14" width="190.009" height="210.036" rx="16" fill="white"/>
<path d="M37.9836 53.3025C50.8156 53.3025 53.4716 53.3025 53.4716 60.1505C53.4716 66.9985 50.6556 67.6065 37.9836 67.6065C25.3116 67.6065 22.5276 67.0305 22.5276 60.0545H29.4076V62.0065H46.5596V58.2945H37.9836C25.3116 58.2945 22.8156 58.2945 22.8156 51.4465C22.8156 44.5985 25.5676 43.9905 38.0156 43.9905C50.4316 43.9905 53.1516 44.7265 53.1516 51.5425H46.3036V49.5905H29.6636V53.3025H36.6396C37.0556 53.3025 37.5036 53.3025 37.9836 53.3025ZM76.3453 44.5985C85.0173 44.5985 86.1373 45.6225 86.1373 53.1105C86.1373 60.6305 85.2733 61.6545 76.3453 61.6545H63.5773V66.9985H56.7293V44.5985H62.3613H76.3453ZM76.3133 56.0545C79.2573 56.0545 79.3213 55.2225 79.3213 53.1105C79.3213 51.0305 79.2573 50.1985 76.3133 50.1985H63.5773V56.0545H76.3133ZM96.0461 58.2945V61.3985H118.19V66.9665L89.1981 66.9985V44.5985H118.19V50.1985H96.0461V53.3025H117.614V58.2945H96.0461ZM128.546 58.2945V61.3985H150.69V66.9665L121.698 66.9985V44.5985H150.69V50.1985H128.546V53.3025H150.114V58.2945H128.546ZM169.782 66.9665L154.198 66.9985V44.5985H169.782C184.694 44.5985 185.302 45.2065 185.302 55.7985C185.302 66.3905 184.726 66.9665 169.782 66.9665ZM161.046 61.3985H169.782C178.454 61.3985 178.454 61.3985 178.454 55.8305C178.454 50.1985 178.454 50.1985 169.75 50.1985H161.046V61.3985ZM51.9523 99.0065H70.9923V103.998H45.1043V81.5985H51.9523V99.0065ZM73.2293 81.5985H80.0773V103.998H73.2293V81.5985ZM118.573 81.5985H120.173V103.998H113.325V90.2065L104.909 103.998H99.1808L90.7648 90.2065V103.998H83.9168V81.5985H85.5168H92.7168L102.061 96.8625L111.373 81.5985H118.573ZM124.042 81.5985H130.89V103.998H124.042V81.5985ZM164.521 81.5985V86.5905H152.233V103.998H145.385V86.5905H133.097V81.5985H164.521Z" fill="#090C14"/>
</svg>
